<svg width="102" height="80" viewBox="0 0 102 80" fill="none" xmlns="http://www.w3.org/2000/svg">
<g clip-path="url(#clip0_34_170)">
<path d="M25.27 24.45H6.69C3.55 24.45 1 26.9899 1 30.1299V59.88C1 63.02 3.55 65.57 6.69 65.57H10.04V76.91L21.38 65.57H52.89C56.03 65.57 58.58 63.02 58.58 59.88V56.77" stroke="white" stroke-width="2" stroke-miterlimit="10"/>
<path d="M65.14 17.0399C58.64 8.9099 47.91 16.0599 50.51 23.5399C53.11 31.0199 65.14 38.8199 65.14 38.8199C65.14 38.8199 77.17 31.0199 79.77 23.5399C82.37 16.0599 71.65 8.9099 65.14 17.0399Z" stroke="white" stroke-width="2" stroke-miterlimit="10"/>
<path d="M93.52 1H36.77C32.91 1 29.79 4.13 29.79 7.98V44.53C29.79 48.39 32.92 51.51 36.77 51.51H75.48L89.4 65.45V51.52H93.51C97.37 51.52 100.49 48.39 100.49 44.54V7.98C100.5 4.13 97.37 1 93.52 1Z" stroke="white" stroke-width="2" stroke-miterlimit="10"/>
</g>
<defs>
<clipPath id="clip0_34_170">
<rect width="101.5" height="79.33" fill="white"/>
</clipPath>
</defs>
</svg>
