<svg width="87" height="59" viewBox="0 0 87 59" fill="none" xmlns="http://www.w3.org/2000/svg">
<g clip-path="url(#clip0_34_180)">
<path d="M55.17 38.0299C57.64 37.1599 60.2 36.7299 61.34 35.5799C62.12 34.7899 62.59 33.7999 62.87 32.8999C61.72 32.1499 60.66 31.1199 59.84 29.7899C56.16 23.8099 57.14 11.8999 67.39 11.8999C77.64 11.8999 78.62 23.8099 74.94 29.7899C74.12 31.1199 73.06 32.1499 71.91 32.8999C72.19 33.7999 72.66 34.7899 73.44 35.5799C75.4 37.5699 81.61 37.3899 84.23 41.0799C86.85 44.7799 85.7 49.8499 85.7 49.8499H67.39H61.05" stroke="white" stroke-width="2" stroke-miterlimit="10"/>
<path d="M53.53 44.33C49.65 38.84 40.43 39.11 37.52 36.16C36.36 34.99 35.67 33.52 35.25 32.18C36.95 31.06 38.53 29.54 39.75 27.56C45.21 18.68 43.76 1 28.54 1C13.32 1 11.88 18.68 17.34 27.55C18.56 29.53 20.13 31.06 21.84 32.17C21.42 33.51 20.73 34.98 19.57 36.15C16.66 39.1 7.43996 38.83 3.55996 44.32C-0.320041 49.81 1.37996 57.34 1.37996 57.34H28.55H55.72C55.72 57.35 57.42 49.81 53.53 44.33Z" stroke="white" stroke-width="2" stroke-miterlimit="10"/>
</g>
<defs>
<clipPath id="clip0_34_180">
<rect width="86.94" height="58.35" fill="white"/>
</clipPath>
</defs>
</svg>
