<svg width="144" height="78" viewBox="0 0 144 78" fill="none" xmlns="http://www.w3.org/2000/svg">
<g clip-path="url(#clip0_138_5)">
<path d="M32.48 33.9599H25.57L18 26.3899" stroke="white" stroke-width="2" stroke-miterlimit="10"/>
<path d="M17.7401 30.3C20.0431 30.3 21.9101 28.433 21.9101 26.13C21.9101 23.8269 20.0431 21.96 17.7401 21.96C15.437 21.96 13.5701 23.8269 13.5701 26.13C13.5701 28.433 15.437 30.3 17.7401 30.3Z" fill="white"/>
<path d="M4.17 48.9499C6.47303 48.9499 8.34 47.0829 8.34 44.7799C8.34 42.4768 6.47303 40.6099 4.17 40.6099C1.86697 40.6099 0 42.4768 0 44.7799C0 47.0829 1.86697 48.9499 4.17 48.9499Z" fill="white"/>
<path d="M32.48 44.78H6.26001" stroke="white" stroke-width="2" stroke-miterlimit="10"/>
<path d="M111.08 44.78H118L125.57 52.35" stroke="white" stroke-width="2" stroke-miterlimit="10"/>
<path d="M125.83 56.7799C128.133 56.7799 130 54.913 130 52.6099C130 50.3069 128.133 48.4399 125.83 48.4399C123.527 48.4399 121.66 50.3069 121.66 52.6099C121.66 54.913 123.527 56.7799 125.83 56.7799Z" fill="white"/>
<path d="M139.39 38.13C141.693 38.13 143.56 36.2631 143.56 33.96C143.56 31.657 141.693 29.79 139.39 29.79C137.087 29.79 135.22 31.657 135.22 33.96C135.22 36.2631 137.087 38.13 139.39 38.13Z" fill="white"/>
<path d="M111.08 33.96H137.3" stroke="white" stroke-width="2" stroke-miterlimit="10"/>
<path d="M37.47 22.72C43.55 9.88 56.63 1 71.78 1C86.93 1 100.01 9.88 106.09 22.72" stroke="white" stroke-width="2" stroke-miterlimit="10"/>
<path d="M106.1 55.1899C100.01 68.0299 86.94 76.9099 71.79 76.9099C56.64 76.9099 43.56 68.0299 37.48 55.1899" stroke="white" stroke-width="2" stroke-miterlimit="10"/>
<path d="M63.3999 29.54V48.4H60.5199L50.1199 35.63V48.4H46.6399V29.54H49.5199L59.9199 42.31V29.54H63.3999Z" fill="white"/>
<path d="M71.97 32.48V38.22H81.08V41.18H71.97V48.4H68.47V29.54H82.24V32.48H71.97Z" fill="white"/>
<path d="M89.5898 32.51H83.3398V29.55H99.3498V32.51H93.0998V48.41H89.5998V32.51H89.5898Z" fill="white"/>
</g>
<defs>
<clipPath id="clip0_138_5">
<rect width="143.57" height="77.91" fill="white"/>
</clipPath>
</defs>
</svg>
