<svg width="81" height="63" viewBox="0 0 81 63" fill="none" xmlns="http://www.w3.org/2000/svg">
<g clip-path="url(#clip0_34_192)">
<path d="M69.37 22.1301L77.54 18.2201L68.06 15.1201L74.08 5.7301L63.98 8.1801C61.5 5.4401 57.92 3.4701 52.72 3.4701C35.61 3.4701 34.48 20.4601 34.48 20.4601C34.48 20.4601 22.99 14.6101 14.3 1.8501C6.25998 15.1401 9.75998 34.6601 23.61 44.5601C16.1 46.6101 2.09998 45.4101 2.09998 45.4101C2.09998 45.4101 18.84 68.3701 47.41 59.3801C70.76 52.0301 69.52 24.7801 69.52 24.7801C69.52 24.7801 69.53 23.7501 69.37 22.1301Z" stroke="white" stroke-width="2" stroke-miterlimit="10"/>
<path d="M52.3 19.0699C54.0728 19.0699 55.51 17.6327 55.51 15.8599C55.51 14.0871 54.0728 12.6499 52.3 12.6499C50.5271 12.6499 49.09 14.0871 49.09 15.8599C49.09 17.6327 50.5271 19.0699 52.3 19.0699Z" fill="white"/>
</g>
<defs>
<clipPath id="clip0_34_192">
<rect width="80.23" height="62.47" fill="white"/>
</clipPath>
</defs>
</svg>
